<svg width="40" height="12" viewBox="0 0 40 12" version="1.1" xmlns="http://www.w3.org/2000/svg" xmlns:xlink="http://www.w3.org/1999/xlink">
<title>See all</title>
<desc>Created using Figma</desc>
<g id="Canvas" transform="translate(1075 663)">
<g id="See all">
<use xlink:href="#path0_fill" transform="translate(-1090 -669)" fill="#383838"/>
</g>
</g>
<defs>
<path id="path0_fill" d="M 22.3126 9.328L 21.0806 9.762C 21.0153 9.32333 20.8053 8.93133 20.4506 8.586C 20.0959 8.24067 19.6059 8.068 18.9806 8.068C 18.4206 8.068 17.9586 8.22667 17.5946 8.544C 17.2399 8.852 17.0626 9.244 17.0626 9.72C 17.0626 10.084 17.1699 10.392 17.3846 10.644C 17.6086 10.896 17.9259 11.0687 18.3366 11.162L 19.8206 11.484C 20.6513 11.6707 21.2859 12.0067 21.7246 12.492C 22.1726 12.9773 22.3966 13.57 22.3966 14.27C 22.3966 15.0633 22.0793 15.754 21.4446 16.342C 20.8099 16.9207 19.9839 17.21 18.9666 17.21C 17.8559 17.21 16.9833 16.916 16.3486 16.328C 15.7233 15.74 15.3593 15.0493 15.2566 14.256L 16.5726 13.836C 16.6286 14.4427 16.8619 14.9513 17.2726 15.362C 17.6833 15.7633 18.2433 15.964 18.9526 15.964C 19.6059 15.964 20.1099 15.8193 20.4646 15.53C 20.8193 15.2313 20.9966 14.8487 20.9966 14.382C 20.9966 14.0087 20.8706 13.6867 20.6186 13.416C 20.3666 13.136 19.9979 12.9447 19.5126 12.842L 18.0986 12.534C 17.3613 12.366 16.7733 12.0533 16.3346 11.596C 15.8959 11.1293 15.6766 10.5367 15.6766 9.818C 15.6766 9.02467 15.9939 8.334 16.6286 7.746C 17.2726 7.158 18.0473 6.864 18.9526 6.864C 19.9606 6.864 20.7353 7.11133 21.2766 7.606C 21.8273 8.10067 22.1726 8.67467 22.3126 9.328ZM 24.8607 12.94L 28.5427 12.94C 28.5241 12.436 28.3514 12.0253 28.0247 11.708C 27.7074 11.3813 27.2641 11.218 26.6947 11.218C 26.1721 11.218 25.7381 11.3907 25.3927 11.736C 25.0567 12.0813 24.8794 12.4827 24.8607 12.94ZM 28.7387 14.69L 29.8727 15.082C 29.6861 15.698 29.3221 16.2067 28.7807 16.608C 28.2394 17.0093 27.5954 17.21 26.8487 17.21C 25.9061 17.21 25.1034 16.888 24.4407 16.244C 23.7874 15.5907 23.4607 14.7133 23.4607 13.612C 23.4607 12.5853 23.7781 11.736 24.4127 11.064C 25.0474 10.392 25.8034 10.056 26.6807 10.056C 27.6981 10.056 28.4914 10.378 29.0607 11.022C 29.6301 11.666 29.9147 12.52 29.9147 13.584C 29.9147 13.7333 29.9054 13.8733 29.8867 14.004L 24.8187 14.004C 24.8374 14.6013 25.0334 15.0913 25.4067 15.474C 25.7894 15.8567 26.2701 16.048 26.8487 16.048C 27.7914 16.048 28.4214 15.5953 28.7387 14.69ZM 32.4486 12.94L 36.1306 12.94C 36.1119 12.436 35.9393 12.0253 35.6126 11.708C 35.2953 11.3813 34.8519 11.218 34.2826 11.218C 33.7599 11.218 33.3259 11.3907 32.9806 11.736C 32.6446 12.0813 32.4673 12.4827 32.4486 12.94ZM 36.3266 14.69L 37.4606 15.082C 37.2739 15.698 36.9099 16.2067 36.3686 16.608C 35.8273 17.0093 35.1833 17.21 34.4366 17.21C 33.4939 17.21 32.6913 16.888 32.0286 16.244C 31.3753 15.5907 31.0486 14.7133 31.0486 13.612C 31.0486 12.5853 31.3659 11.736 32.0006 11.064C 32.6353 10.392 33.3913 10.056 34.2686 10.056C 35.2859 10.056 36.0793 10.378 36.6486 11.022C 37.2179 11.666 37.5026 12.52 37.5026 13.584C 37.5026 13.7333 37.4933 13.8733 37.4746 14.004L 32.4066 14.004C 32.4253 14.6013 32.6213 15.0913 32.9946 15.474C 33.3773 15.8567 33.8579 16.048 34.4366 16.048C 35.3793 16.048 36.0093 15.5953 36.3266 14.69ZM 42.2625 15.194C 42.2625 14.6153 42.4445 14.1533 42.8085 13.808C 43.1818 13.4627 43.6812 13.2433 44.3065 13.15L 46.1265 12.884C 46.4718 12.8373 46.6445 12.6693 46.6445 12.38C 46.6445 12.0253 46.5232 11.736 46.2805 11.512C 46.0378 11.288 45.6738 11.176 45.1885 11.176C 44.7405 11.176 44.3858 11.302 44.1245 11.554C 43.8725 11.7967 43.7185 12.1233 43.6625 12.534L 42.4025 12.24C 42.4772 11.596 42.7712 11.0733 43.2845 10.672C 43.7978 10.2613 44.4232 10.056 45.1605 10.056C 46.1032 10.056 46.8032 10.2893 47.2605 10.756C 47.7272 11.2227 47.9605 11.8107 47.9605 12.52L 47.9605 15.894C 47.9605 16.4073 47.9885 16.776 48.0445 17L 46.7565 17C 46.7098 16.8133 46.6865 16.51 46.6865 16.09C 46.4998 16.3887 46.2245 16.65 45.8605 16.874C 45.5058 17.098 45.0578 17.21 44.5165 17.21C 43.8538 17.21 43.3125 17.014 42.8925 16.622C 42.4725 16.2207 42.2625 15.7447 42.2625 15.194ZM 44.6985 16.104C 45.2865 16.104 45.7578 15.9453 46.1125 15.628C 46.4672 15.3107 46.6445 14.8067 46.6445 14.116L 46.6445 13.808L 44.5865 14.116C 43.9332 14.228 43.6065 14.564 43.6065 15.124C 43.6065 15.3853 43.7045 15.614 43.9005 15.81C 44.1058 16.006 44.3718 16.104 44.6985 16.104ZM 51.3266 17L 50.0106 17L 50.0106 6.864L 51.3266 6.864L 51.3266 17ZM 54.8813 17L 53.5653 17L 53.5653 6.864L 54.8813 6.864L 54.8813 17Z"/>
</defs>
</svg>
